<mxfile host="app.diagrams.net" modified="2023-08-23T10:32:18.258Z" agent="Mozilla/5.0 (Windows NT 10.0; Win64; x64) AppleWebKit/537.36 (KHTML, like Gecko) Chrome/116.0.0.0 Safari/537.36" etag="R7NXvGlDZSGbV3wdL_wn" version="21.6.9" type="device">
  <diagram name="Page-1" id="_d8mGVjo6Lqkvy-iF9ng">
    <mxGraphModel dx="1050" dy="574" grid="1" gridSize="10" guides="1" tooltips="1" connect="1" arrows="1" fold="1" page="1" pageScale="1" pageWidth="827" pageHeight="1169" math="0" shadow="0">
      <root>
        <mxCell id="0" />
        <mxCell id="1" parent="0" />
        <mxCell id="DP7lyjPFew0JR6JgvhZu-2" value="" style="rounded=0;whiteSpace=wrap;html=1;" vertex="1" parent="1">
          <mxGeometry x="30" y="50" width="120" height="420" as="geometry" />
        </mxCell>
        <mxCell id="DP7lyjPFew0JR6JgvhZu-3" value="&lt;b&gt;Employees&lt;/b&gt;" style="text;html=1;strokeColor=none;fillColor=none;align=center;verticalAlign=middle;whiteSpace=wrap;rounded=0;" vertex="1" parent="1">
          <mxGeometry x="60" y="60" width="60" height="30" as="geometry" />
        </mxCell>
        <mxCell id="DP7lyjPFew0JR6JgvhZu-5" value="Employeeid (pk)" style="text;html=1;strokeColor=none;fillColor=none;align=center;verticalAlign=middle;whiteSpace=wrap;rounded=0;" vertex="1" parent="1">
          <mxGeometry x="45" y="110" width="90" height="30" as="geometry" />
        </mxCell>
        <mxCell id="DP7lyjPFew0JR6JgvhZu-6" value="Firsrname" style="text;html=1;strokeColor=none;fillColor=none;align=center;verticalAlign=middle;whiteSpace=wrap;rounded=0;" vertex="1" parent="1">
          <mxGeometry x="45" y="140" width="60" height="30" as="geometry" />
        </mxCell>
        <mxCell id="DP7lyjPFew0JR6JgvhZu-7" value="lastname" style="text;html=1;strokeColor=none;fillColor=none;align=center;verticalAlign=middle;whiteSpace=wrap;rounded=0;" vertex="1" parent="1">
          <mxGeometry x="45" y="170" width="60" height="30" as="geometry" />
        </mxCell>
        <mxCell id="DP7lyjPFew0JR6JgvhZu-8" value="dob" style="text;html=1;strokeColor=none;fillColor=none;align=center;verticalAlign=middle;whiteSpace=wrap;rounded=0;" vertex="1" parent="1">
          <mxGeometry x="45" y="200" width="60" height="30" as="geometry" />
        </mxCell>
        <mxCell id="DP7lyjPFew0JR6JgvhZu-9" value="gender" style="text;html=1;strokeColor=none;fillColor=none;align=center;verticalAlign=middle;whiteSpace=wrap;rounded=0;" vertex="1" parent="1">
          <mxGeometry x="45" y="230" width="60" height="30" as="geometry" />
        </mxCell>
        <mxCell id="DP7lyjPFew0JR6JgvhZu-10" value="address" style="text;html=1;strokeColor=none;fillColor=none;align=center;verticalAlign=middle;whiteSpace=wrap;rounded=0;" vertex="1" parent="1">
          <mxGeometry x="50" y="260" width="60" height="30" as="geometry" />
        </mxCell>
        <mxCell id="DP7lyjPFew0JR6JgvhZu-11" value="departmentid(fk)" style="text;html=1;strokeColor=none;fillColor=none;align=center;verticalAlign=middle;whiteSpace=wrap;rounded=0;" vertex="1" parent="1">
          <mxGeometry x="50" y="290" width="60" height="30" as="geometry" />
        </mxCell>
        <mxCell id="DP7lyjPFew0JR6JgvhZu-12" value="position" style="text;html=1;strokeColor=none;fillColor=none;align=center;verticalAlign=middle;whiteSpace=wrap;rounded=0;" vertex="1" parent="1">
          <mxGeometry x="50" y="330" width="60" height="30" as="geometry" />
        </mxCell>
        <mxCell id="DP7lyjPFew0JR6JgvhZu-14" value="hire date" style="text;html=1;strokeColor=none;fillColor=none;align=center;verticalAlign=middle;whiteSpace=wrap;rounded=0;" vertex="1" parent="1">
          <mxGeometry x="50" y="360" width="60" height="30" as="geometry" />
        </mxCell>
        <mxCell id="DP7lyjPFew0JR6JgvhZu-15" value="mobile" style="text;html=1;strokeColor=none;fillColor=none;align=center;verticalAlign=middle;whiteSpace=wrap;rounded=0;" vertex="1" parent="1">
          <mxGeometry x="50" y="400" width="60" height="30" as="geometry" />
        </mxCell>
        <mxCell id="DP7lyjPFew0JR6JgvhZu-16" value="" style="rounded=0;whiteSpace=wrap;html=1;" vertex="1" parent="1">
          <mxGeometry x="240" y="20" width="120" height="240" as="geometry" />
        </mxCell>
        <mxCell id="DP7lyjPFew0JR6JgvhZu-19" value="&lt;b&gt;Department&lt;/b&gt;" style="text;html=1;strokeColor=none;fillColor=none;align=center;verticalAlign=middle;whiteSpace=wrap;rounded=0;" vertex="1" parent="1">
          <mxGeometry x="265" y="20" width="70" height="30" as="geometry" />
        </mxCell>
        <mxCell id="DP7lyjPFew0JR6JgvhZu-20" value="departmentid(pk)" style="text;html=1;strokeColor=none;fillColor=none;align=center;verticalAlign=middle;whiteSpace=wrap;rounded=0;" vertex="1" parent="1">
          <mxGeometry x="275" y="60" width="60" height="30" as="geometry" />
        </mxCell>
        <mxCell id="DP7lyjPFew0JR6JgvhZu-21" value="departementname" style="text;html=1;strokeColor=none;fillColor=none;align=center;verticalAlign=middle;whiteSpace=wrap;rounded=0;" vertex="1" parent="1">
          <mxGeometry x="270" y="110" width="60" height="30" as="geometry" />
        </mxCell>
        <mxCell id="DP7lyjPFew0JR6JgvhZu-23" value="managerid(fk)" style="text;html=1;strokeColor=none;fillColor=none;align=center;verticalAlign=middle;whiteSpace=wrap;rounded=0;" vertex="1" parent="1">
          <mxGeometry x="275" y="150" width="60" height="30" as="geometry" />
        </mxCell>
        <mxCell id="DP7lyjPFew0JR6JgvhZu-26" value="" style="shape=flexArrow;endArrow=classic;startArrow=classic;html=1;rounded=0;" edge="1" parent="1">
          <mxGeometry width="100" height="100" relative="1" as="geometry">
            <mxPoint x="150" y="150" as="sourcePoint" />
            <mxPoint x="240" y="150" as="targetPoint" />
          </mxGeometry>
        </mxCell>
        <mxCell id="DP7lyjPFew0JR6JgvhZu-36" style="edgeStyle=orthogonalEdgeStyle;rounded=0;orthogonalLoop=1;jettySize=auto;html=1;exitX=0.5;exitY=0;exitDx=0;exitDy=0;entryX=0.5;entryY=0;entryDx=0;entryDy=0;" edge="1" parent="1" source="DP7lyjPFew0JR6JgvhZu-27" target="DP7lyjPFew0JR6JgvhZu-28">
          <mxGeometry relative="1" as="geometry" />
        </mxCell>
        <mxCell id="DP7lyjPFew0JR6JgvhZu-27" value="" style="rounded=0;whiteSpace=wrap;html=1;" vertex="1" parent="1">
          <mxGeometry x="450" y="180" width="120" height="280" as="geometry" />
        </mxCell>
        <mxCell id="DP7lyjPFew0JR6JgvhZu-28" value="&lt;b&gt;Attendence&lt;/b&gt;" style="text;html=1;strokeColor=none;fillColor=none;align=center;verticalAlign=middle;whiteSpace=wrap;rounded=0;" vertex="1" parent="1">
          <mxGeometry x="480" y="190" width="60" height="30" as="geometry" />
        </mxCell>
        <mxCell id="DP7lyjPFew0JR6JgvhZu-29" value="attendenceid(pk)" style="text;html=1;strokeColor=none;fillColor=none;align=center;verticalAlign=middle;whiteSpace=wrap;rounded=0;" vertex="1" parent="1">
          <mxGeometry x="480" y="220" width="60" height="30" as="geometry" />
        </mxCell>
        <mxCell id="DP7lyjPFew0JR6JgvhZu-31" value="Employeeid(fk)" style="text;html=1;strokeColor=none;fillColor=none;align=center;verticalAlign=middle;whiteSpace=wrap;rounded=0;" vertex="1" parent="1">
          <mxGeometry x="480" y="250" width="60" height="30" as="geometry" />
        </mxCell>
        <mxCell id="DP7lyjPFew0JR6JgvhZu-32" value="Date" style="text;html=1;strokeColor=none;fillColor=none;align=center;verticalAlign=middle;whiteSpace=wrap;rounded=0;" vertex="1" parent="1">
          <mxGeometry x="480" y="280" width="60" height="30" as="geometry" />
        </mxCell>
        <mxCell id="DP7lyjPFew0JR6JgvhZu-33" value="TimeIn " style="text;html=1;strokeColor=none;fillColor=none;align=center;verticalAlign=middle;whiteSpace=wrap;rounded=0;" vertex="1" parent="1">
          <mxGeometry x="480" y="320" width="60" height="30" as="geometry" />
        </mxCell>
        <mxCell id="DP7lyjPFew0JR6JgvhZu-34" value="TimeOut" style="text;html=1;strokeColor=none;fillColor=none;align=center;verticalAlign=middle;whiteSpace=wrap;rounded=0;" vertex="1" parent="1">
          <mxGeometry x="480" y="350" width="60" height="30" as="geometry" />
        </mxCell>
        <mxCell id="DP7lyjPFew0JR6JgvhZu-35" value="TotalHours  " style="text;html=1;strokeColor=none;fillColor=none;align=center;verticalAlign=middle;whiteSpace=wrap;rounded=0;" vertex="1" parent="1">
          <mxGeometry x="480" y="380" width="60" height="30" as="geometry" />
        </mxCell>
        <mxCell id="DP7lyjPFew0JR6JgvhZu-39" value="" style="rounded=0;whiteSpace=wrap;html=1;" vertex="1" parent="1">
          <mxGeometry x="655" y="20" width="120" height="240" as="geometry" />
        </mxCell>
        <mxCell id="DP7lyjPFew0JR6JgvhZu-40" value="&lt;b&gt;Salaries&lt;/b&gt;" style="text;html=1;strokeColor=none;fillColor=none;align=center;verticalAlign=middle;whiteSpace=wrap;rounded=0;" vertex="1" parent="1">
          <mxGeometry x="690" y="20" width="60" height="30" as="geometry" />
        </mxCell>
        <mxCell id="DP7lyjPFew0JR6JgvhZu-43" value="Salaryid (PK)  " style="text;html=1;strokeColor=none;fillColor=none;align=center;verticalAlign=middle;whiteSpace=wrap;rounded=0;" vertex="1" parent="1">
          <mxGeometry x="680" y="50" width="80" height="30" as="geometry" />
        </mxCell>
        <mxCell id="DP7lyjPFew0JR6JgvhZu-44" value="EmployeeID (FK)" style="text;html=1;strokeColor=none;fillColor=none;align=center;verticalAlign=middle;whiteSpace=wrap;rounded=0;" vertex="1" parent="1">
          <mxGeometry x="670" y="90" width="90" height="30" as="geometry" />
        </mxCell>
        <mxCell id="DP7lyjPFew0JR6JgvhZu-45" value="BaseSalary " style="text;html=1;strokeColor=none;fillColor=none;align=center;verticalAlign=middle;whiteSpace=wrap;rounded=0;" vertex="1" parent="1">
          <mxGeometry x="690" y="125" width="60" height="30" as="geometry" />
        </mxCell>
        <mxCell id="DP7lyjPFew0JR6JgvhZu-46" value=" OvertimeRate" style="text;html=1;strokeColor=none;fillColor=none;align=center;verticalAlign=middle;whiteSpace=wrap;rounded=0;" vertex="1" parent="1">
          <mxGeometry x="685" y="160" width="60" height="30" as="geometry" />
        </mxCell>
        <mxCell id="DP7lyjPFew0JR6JgvhZu-47" value="Deductions  " style="text;html=1;strokeColor=none;fillColor=none;align=center;verticalAlign=middle;whiteSpace=wrap;rounded=0;" vertex="1" parent="1">
          <mxGeometry x="690" y="200" width="60" height="30" as="geometry" />
        </mxCell>
        <mxCell id="DP7lyjPFew0JR6JgvhZu-49" value="" style="endArrow=classic;html=1;rounded=0;" edge="1" parent="1">
          <mxGeometry width="50" height="50" relative="1" as="geometry">
            <mxPoint x="655" y="200" as="sourcePoint" />
            <mxPoint x="575" y="200" as="targetPoint" />
          </mxGeometry>
        </mxCell>
        <mxCell id="DP7lyjPFew0JR6JgvhZu-51" value="" style="rounded=0;whiteSpace=wrap;html=1;" vertex="1" parent="1">
          <mxGeometry x="655" y="285" width="120" height="220" as="geometry" />
        </mxCell>
        <mxCell id="DP7lyjPFew0JR6JgvhZu-52" value="&lt;b&gt;DailyPayouts&lt;/b&gt;" style="text;html=1;strokeColor=none;fillColor=none;align=center;verticalAlign=middle;whiteSpace=wrap;rounded=0;" vertex="1" parent="1">
          <mxGeometry x="690" y="285" width="60" height="30" as="geometry" />
        </mxCell>
        <mxCell id="DP7lyjPFew0JR6JgvhZu-53" value="PayoutID (PK) " style="text;html=1;strokeColor=none;fillColor=none;align=center;verticalAlign=middle;whiteSpace=wrap;rounded=0;" vertex="1" parent="1">
          <mxGeometry x="672.5" y="310" width="95" height="30" as="geometry" />
        </mxCell>
        <mxCell id="DP7lyjPFew0JR6JgvhZu-55" value=" EmployeeID (FK) " style="text;html=1;strokeColor=none;fillColor=none;align=center;verticalAlign=middle;whiteSpace=wrap;rounded=0;" vertex="1" parent="1">
          <mxGeometry x="680" y="330" width="100" height="30" as="geometry" />
        </mxCell>
        <mxCell id="DP7lyjPFew0JR6JgvhZu-57" value="date" style="text;html=1;strokeColor=none;fillColor=none;align=center;verticalAlign=middle;whiteSpace=wrap;rounded=0;" vertex="1" parent="1">
          <mxGeometry x="690" y="350" width="60" height="30" as="geometry" />
        </mxCell>
        <mxCell id="DP7lyjPFew0JR6JgvhZu-58" value=" TotalHoursWorked  " style="text;html=1;strokeColor=none;fillColor=none;align=center;verticalAlign=middle;whiteSpace=wrap;rounded=0;" vertex="1" parent="1">
          <mxGeometry x="685" y="370" width="60" height="30" as="geometry" />
        </mxCell>
        <mxCell id="DP7lyjPFew0JR6JgvhZu-59" value="OvertimeHours" style="text;html=1;strokeColor=none;fillColor=none;align=center;verticalAlign=middle;whiteSpace=wrap;rounded=0;" vertex="1" parent="1">
          <mxGeometry x="690" y="390" width="60" height="30" as="geometry" />
        </mxCell>
        <mxCell id="DP7lyjPFew0JR6JgvhZu-62" value=" GrossEarnings" style="text;html=1;strokeColor=none;fillColor=none;align=center;verticalAlign=middle;whiteSpace=wrap;rounded=0;" vertex="1" parent="1">
          <mxGeometry x="685" y="420" width="60" height="30" as="geometry" />
        </mxCell>
        <mxCell id="DP7lyjPFew0JR6JgvhZu-63" value=" Deductions " style="text;html=1;strokeColor=none;fillColor=none;align=center;verticalAlign=middle;whiteSpace=wrap;rounded=0;" vertex="1" parent="1">
          <mxGeometry x="690" y="440" width="60" height="30" as="geometry" />
        </mxCell>
        <mxCell id="DP7lyjPFew0JR6JgvhZu-64" value="NetPayout  " style="text;html=1;strokeColor=none;fillColor=none;align=center;verticalAlign=middle;whiteSpace=wrap;rounded=0;" vertex="1" parent="1">
          <mxGeometry x="685" y="470" width="60" height="30" as="geometry" />
        </mxCell>
        <mxCell id="DP7lyjPFew0JR6JgvhZu-65" value="" style="endArrow=classic;startArrow=classic;html=1;rounded=0;exitX=0.5;exitY=0;exitDx=0;exitDy=0;" edge="1" parent="1" source="DP7lyjPFew0JR6JgvhZu-52">
          <mxGeometry width="50" height="50" relative="1" as="geometry">
            <mxPoint x="672.5" y="310" as="sourcePoint" />
            <mxPoint x="722.5" y="260" as="targetPoint" />
          </mxGeometry>
        </mxCell>
        <mxCell id="DP7lyjPFew0JR6JgvhZu-66" value="" style="endArrow=classic;startArrow=classic;html=1;rounded=0;entryX=0.005;entryY=0.423;entryDx=0;entryDy=0;entryPerimeter=0;" edge="1" parent="1" target="DP7lyjPFew0JR6JgvhZu-51">
          <mxGeometry width="50" height="50" relative="1" as="geometry">
            <mxPoint x="570" y="374.88" as="sourcePoint" />
            <mxPoint x="662.3599999999999" y="370" as="targetPoint" />
          </mxGeometry>
        </mxCell>
        <mxCell id="DP7lyjPFew0JR6JgvhZu-67" value="" style="endArrow=classic;startArrow=classic;html=1;rounded=0;exitX=1;exitY=0.75;exitDx=0;exitDy=0;entryX=0.013;entryY=0.676;entryDx=0;entryDy=0;entryPerimeter=0;" edge="1" parent="1" source="DP7lyjPFew0JR6JgvhZu-2" target="DP7lyjPFew0JR6JgvhZu-27">
          <mxGeometry width="50" height="50" relative="1" as="geometry">
            <mxPoint x="390" y="420" as="sourcePoint" />
            <mxPoint x="440" y="370" as="targetPoint" />
          </mxGeometry>
        </mxCell>
      </root>
    </mxGraphModel>
  </diagram>
</mxfile>
